<svg width="158" height="147" viewBox="0 0 158 147" fill="none" xmlns="http://www.w3.org/2000/svg">
<g clip-path="url(#clip0_717_10075)">
<path d="M45.1743 5.56001C44.4091 2.11691 47.7967 -0.795536 51.0794 0.506424C57.6632 3.11652 66.962 5.73895 78.2539 5.81299C90.2739 5.89321 100.116 3.06098 106.885 0.327482C110.075 -0.962138 113.413 1.71583 112.882 5.11573C112.142 9.84845 110.229 15.9695 105.496 21.6278C95.5928 33.475 81.3453 33.7342 79.3214 33.7404C76.9828 33.6601 63.0994 32.9567 53.0169 21.2946C48.3829 15.9387 46.1986 10.1693 45.1743 5.56618V5.56001Z" fill="#2C2C70"/>
<path d="M120.916 10.2312C123.514 7.84327 127.728 9.33034 128.24 12.8166C129.271 19.8201 131.653 29.1868 137.231 39.0039C143.173 49.4566 150.54 56.5588 156.297 61.057C159.006 63.1735 158.358 67.4064 155.15 68.6467C150.682 70.3744 144.426 71.7751 137.157 70.5101C121.94 67.8569 114.598 55.6518 113.58 53.8994C112.481 51.8323 106.15 39.4544 111.204 24.8922C113.53 18.2034 117.43 13.4275 120.904 10.2312H120.916Z" fill="#2C2C70"/>
<path d="M154.742 78.1613C158.105 79.2165 158.932 83.6098 156.168 85.8003C150.614 90.1937 143.697 96.9441 137.983 106.681C131.905 117.047 129.437 126.988 128.419 134.22C127.944 137.626 123.952 139.181 121.274 137.021C117.547 134.016 113.203 129.296 110.667 122.372C105.36 107.872 112.253 95.4077 113.265 93.6491C114.505 91.6622 122.057 79.994 137.2 77.0939C144.154 75.761 150.244 76.7545 154.742 78.1675V78.1613Z" fill="#2C2C70"/>
<path d="M112.826 141.427C113.592 144.87 110.204 147.782 106.921 146.481C100.338 143.87 91.0387 141.248 79.7468 141.174C67.7268 141.094 57.885 143.926 51.116 146.659C47.9259 147.949 44.5877 145.271 45.1183 141.871C45.8588 137.138 47.7716 131.017 52.5043 125.359C62.4079 113.512 76.6554 113.253 78.6793 113.247C81.0179 113.327 94.9014 114.03 104.984 125.692C109.618 131.048 111.802 136.818 112.826 141.421V141.427Z" fill="#2C2C70"/>
<path d="M37.0846 136.756C34.4869 139.144 30.2725 137.657 29.7603 134.17C28.7299 127.167 26.3481 117.8 20.77 107.983C14.8279 97.5304 7.46039 90.4283 1.70337 85.93C-1.00544 83.8136 -0.357548 79.5806 2.85107 78.3404C7.31847 76.6127 13.5753 75.212 20.844 76.4769C36.0603 79.1302 43.4031 91.3353 44.4213 93.0877C45.5196 95.1548 51.8505 107.533 46.7969 122.095C44.4706 128.784 40.5709 133.56 37.097 136.756H37.0846Z" fill="#2C2C70"/>
<path d="M3.25847 68.8258C-0.10441 67.7706 -0.931248 63.3773 1.8331 61.1868C7.38649 56.7934 14.3035 50.043 20.0174 40.306C26.0952 29.9397 28.5634 19.9991 29.5815 12.7674C30.0566 9.36133 34.0489 7.80638 36.7269 9.96603C40.4538 12.971 44.7978 17.6914 47.3338 24.6146C52.6404 39.1151 45.748 51.5794 44.7361 53.338C43.4958 55.3249 35.9432 66.9931 20.801 69.8932C13.8469 71.2261 7.75672 70.2326 3.25847 68.8196V68.8258Z" fill="#2C2C70"/>
<path d="M45.1743 5.56001C44.4091 2.11691 47.7967 -0.795536 51.0794 0.506424C57.6632 3.11652 66.962 5.73895 78.2539 5.81299C90.2739 5.89321 100.116 3.06098 106.885 0.327482C110.075 -0.962138 113.413 1.71583 112.882 5.11573C112.142 9.84845 110.229 15.9695 105.496 21.6278C95.5928 33.475 81.3453 33.7342 79.3214 33.7404C76.9828 33.6601 63.0994 32.9567 53.0169 21.2946C48.3829 15.9387 46.1986 10.1693 45.1743 5.56618V5.56001Z" fill="#2C2C70"/>
<path d="M79.0003 101.257C94.3356 101.257 106.767 88.8253 106.767 73.4901C106.767 58.1548 94.3356 45.7231 79.0003 45.7231C63.6651 45.7231 51.2334 58.1548 51.2334 73.4901C51.2334 88.8253 63.6651 101.257 79.0003 101.257Z" fill="#2C2C70"/>
</g>
<defs>
<clipPath id="clip0_717_10075">
<rect width="158" height="146.986" fill="white"/>
</clipPath>
</defs>
</svg>
