<svg width="99" height="95" viewBox="0 0 59 55" fill="none" xmlns="http://www.w3.org/2000/svg">
<mask id="mask0_730_924" style="mask-type:luminance" maskUnits="userSpaceOnUse" x="0" y="0" width="59" height="55">
<path d="M58.9487 0H0.0826035V54.7176H58.9487V0Z" fill="white"/>
</mask>
<g mask="url(#mask0_730_924)">
<path d="M16.9131 2.06955C16.628 0.787801 17.8901 -0.296402 19.113 0.188274C21.5659 1.15992 25.0306 2.13616 29.2374 2.16373C33.716 2.19359 37.3825 1.13925 39.9047 0.12166C41.0931 -0.358422 42.337 0.638492 42.1392 1.90416C41.8634 3.66599 41.1505 5.94466 39.3873 8.05103C35.6976 12.4614 30.3893 12.5579 29.6353 12.5601C28.7638 12.5303 23.5913 12.2684 19.8348 7.92702C18.1085 5.93319 17.2947 3.78544 16.9131 2.07185V2.06955Z" fill="#D0D0FF"/>
<path d="M45.1323 3.80853C46.1 2.91957 47.6705 3.47316 47.8613 4.77097C48.2449 7.37813 49.1323 10.865 51.2109 14.5196C53.4244 18.4108 56.1693 21.0547 58.3146 22.7293C59.3238 23.5171 59.0821 25.0929 57.8867 25.5546C56.2224 26.1978 53.8914 26.7192 51.183 26.2483C45.514 25.2606 42.7784 20.7171 42.3991 20.0647C41.9899 19.2952 39.6309 14.6873 41.514 9.26632C42.3804 6.77631 43.8334 4.99838 45.1277 3.80853H45.1323Z" fill="#D0D0FF"/>
<path d="M57.7351 29.0967C58.9879 29.4895 59.2959 31.125 58.2661 31.9404C56.1968 33.5759 53.6199 36.0889 51.4909 39.7135C49.2266 43.5726 48.307 47.2733 47.9276 49.9652C47.7508 51.2332 46.2633 51.8122 45.2657 51.008C43.8772 49.8896 42.2587 48.1321 41.3138 45.5549C39.3365 40.1568 41.9045 35.5169 42.2815 34.8623C42.7439 34.1226 45.5574 29.7789 51.1992 28.6993C53.7902 28.2031 56.0592 28.5729 57.7351 29.099V29.0967Z" fill="#D0D0FF"/>
<path d="M42.1183 52.6481C42.4033 53.9298 41.1412 55.0141 39.9183 54.5293C37.4655 53.5577 34.0007 52.5815 29.7939 52.554C25.3153 52.5241 21.6485 53.5782 19.1266 54.5959C17.9382 55.0761 16.6943 54.079 16.8921 52.8132C17.1679 51.0515 17.8808 48.7731 19.644 46.6664C23.3337 42.2562 28.642 42.1597 29.396 42.1573C30.2675 42.1872 35.4401 42.4492 39.1965 46.7904C40.9229 48.7843 41.7366 50.9321 42.1183 52.6458V52.6481Z" fill="#D0D0FF"/>
<path d="M13.899 50.9092C12.9313 51.7982 11.3612 51.2448 11.1704 49.947C10.7864 47.3396 9.89899 43.8528 7.82083 40.1983C5.60691 36.3071 2.86202 33.6632 0.717144 31.9886C-0.292071 31.2007 -0.0508197 29.625 1.14457 29.1632C2.80888 28.5201 5.14032 27.9986 7.84836 28.4695C13.5173 29.4573 16.2533 34.0008 16.6326 34.6532C17.0418 35.4227 19.4004 40.0305 17.5177 45.4515C16.6509 47.9414 15.198 49.7195 13.9037 50.9092H13.899Z" fill="#D0D0FF"/>
<path d="M1.29662 25.6212C0.0434355 25.2284 -0.264528 23.5929 0.765632 22.7774C2.83448 21.142 5.41143 18.629 7.5404 15.0042C9.80474 11.1452 10.7244 7.4447 11.1037 4.75255C11.2809 3.4846 12.768 2.90574 13.766 3.70971C15.1545 4.82836 16.7731 6.58559 17.7179 9.16287C19.6948 14.5609 17.1268 19.2009 16.7498 19.8556C16.2878 20.5952 13.4739 24.9389 7.83247 26.0186C5.24155 26.5147 2.97256 26.1449 1.29662 25.6189V25.6212Z" fill="#D0D0FF"/>
<path d="M16.9131 2.06955C16.628 0.787801 17.8901 -0.296402 19.113 0.188274C21.5659 1.15992 25.0306 2.13616 29.2374 2.16373C33.716 2.19359 37.3825 1.13925 39.9047 0.12166C41.0931 -0.358422 42.337 0.638492 42.1392 1.90416C41.8634 3.66599 41.1505 5.94466 39.3873 8.05103C35.6976 12.4614 30.3893 12.5579 29.6353 12.5601C28.7638 12.5303 23.5913 12.2684 19.8348 7.92702C18.1085 5.93319 17.2947 3.78544 16.9131 2.07185V2.06955Z" fill="#D0D0FF"/>
<path d="M29.5159 37.6946C35.2291 37.6946 39.8609 33.0667 39.8609 27.3579C39.8609 21.6491 35.2291 17.0212 29.5159 17.0212C23.8023 17.0212 19.1704 21.6491 19.1704 27.3579C19.1704 33.0667 23.8023 37.6946 29.5159 37.6946Z" fill="#D0D0FF"/>
</g>
</svg>
