<svg xmlns="http://www.w3.org/2000/svg" xmlns:xlink="http://www.w3.org/1999/xlink" width="100" zoomAndPan="magnify" viewBox="0 0 75 74.999997" height="100" preserveAspectRatio="xMidYMid meet" version="1.0"><defs><clipPath id="3db323ccc5"><path d="M 0 3.535156 L 75 3.535156 L 75 71.785156 L 0 71.785156 Z M 0 3.535156 " clip-rule="nonzero"/></clipPath></defs><g clip-path="url(#3db323ccc5)"><path fill="#1e1e53" d="M 34.054688 3.5625 C 35.039062 3.5625 36.027344 3.941406 36.777344 4.691406 C 38.28125 6.195312 38.28125 8.632812 36.777344 10.136719 L 13.09375 33.824219 L 71.148438 33.824219 C 73.277344 33.824219 75 35.546875 75 37.671875 C 75 39.800781 73.277344 41.523438 71.148438 41.523438 L 13.0625 41.523438 L 36.777344 65.238281 C 38.28125 66.742188 38.28125 69.183594 36.777344 70.683594 C 36.027344 71.4375 35.039062 71.8125 34.054688 71.8125 C 33.070312 71.8125 32.082031 71.4375 31.332031 70.683594 L 1.15625 40.507812 C 0.382812 39.738281 0.0078125 38.71875 0.0273438 37.707031 C 0 36.683594 0.375 35.648438 1.15625 34.867188 L 31.332031 4.691406 C 32.082031 3.941406 33.070312 3.5625 34.054688 3.5625 Z M 34.054688 3.5625 " fill-opacity="1" fill-rule="nonzero"/></g></svg>