<svg xmlns="http://www.w3.org/2000/svg" xmlns:xlink="http://www.w3.org/1999/xlink" width="100" zoomAndPan="magnify" viewBox="0 0 75 74.999997" height="100" preserveAspectRatio="xMidYMid meet" version="1.0"><defs><clipPath id="a7be74a699"><path d="M 0 3.535156 L 75 3.535156 L 75 71.785156 L 0 71.785156 Z M 0 3.535156 " clip-rule="nonzero"/></clipPath></defs><g clip-path="url(#a7be74a699)"><path fill="#1e1e53" d="M 40.945312 3.5625 C 39.960938 3.5625 38.972656 3.941406 38.222656 4.691406 C 36.71875 6.195312 36.71875 8.632812 38.222656 10.136719 L 61.90625 33.824219 L 3.851562 33.824219 C 1.722656 33.824219 0 35.546875 0 37.671875 C 0 39.800781 1.722656 41.523438 3.851562 41.523438 L 61.9375 41.523438 L 38.222656 65.238281 C 36.71875 66.742188 36.71875 69.183594 38.222656 70.683594 C 38.972656 71.4375 39.960938 71.8125 40.945312 71.8125 C 41.929688 71.8125 42.917969 71.4375 43.667969 70.683594 L 73.84375 40.507812 C 74.617188 39.738281 74.992188 38.71875 74.972656 37.707031 C 75 36.683594 74.625 35.648438 73.84375 34.867188 L 43.667969 4.691406 C 42.917969 3.941406 41.929688 3.5625 40.945312 3.5625 Z M 40.945312 3.5625 " fill-opacity="1" fill-rule="nonzero"/></g></svg>