<svg width="44" height="44" viewBox="0 0 44 44" fill="none" xmlns="http://www.w3.org/2000/svg">
<g clip-path="url(#clip0_727_2020)">
<path d="M31.1667 6.12346C33.9319 7.72003 36.2321 10.0111 37.8397 12.7698C39.4474 15.5286 40.3066 18.6594 40.3324 21.8523C40.3582 25.0451 39.5496 28.1894 37.9868 30.9737C36.424 33.7581 34.161 36.086 31.422 37.7271C28.683 39.3681 25.5629 40.2653 22.3706 40.3299C19.1783 40.3945 16.0244 39.6243 13.2213 38.0954C10.4181 36.5665 8.06285 34.3321 6.38864 31.6132C4.71443 28.8944 3.77933 25.7854 3.67591 22.5941L3.66675 22.0001L3.67591 21.4061C3.77859 18.2399 4.69992 15.1544 6.35009 12.4503C8.00026 9.74617 10.3229 7.51579 13.0917 5.97658C15.8605 4.43737 18.9809 3.64186 22.1486 3.6676C25.3163 3.69334 28.4234 4.53946 31.1667 6.12346ZM28.7962 17.0373C28.4806 16.7216 28.0605 16.532 27.615 16.504C27.1695 16.476 26.729 16.6115 26.3762 16.8851L26.2039 17.0373L20.1667 23.0726L17.7962 20.704L17.6239 20.5518C17.2712 20.2784 16.8308 20.143 16.3853 20.1711C15.9399 20.1992 15.52 20.3888 15.2044 20.7044C14.8888 21.02 14.6992 21.4399 14.6711 21.8854C14.643 22.3308 14.7783 22.7712 15.0517 23.124L15.2039 23.2963L18.8706 26.963L19.0429 27.1151C19.3644 27.3646 19.7598 27.5 20.1667 27.5C20.5737 27.5 20.9691 27.3646 21.2906 27.1151L21.4629 26.963L28.7962 19.6296L28.9484 19.4573C29.222 19.1046 29.3576 18.6641 29.3295 18.2185C29.3015 17.773 29.1119 17.353 28.7962 17.0373Z" fill="#D7F77C"/>
</g>
<defs>
<clipPath id="clip0_727_2020">
<rect width="44" height="44" fill="white"/>
</clipPath>
</defs>
</svg>
