<svg width="602" height="142" viewBox="0 0 602 142" fill="none" xmlns="http://www.w3.org/2000/svg">
<g clip-path="url(#clip0_717_10086)">
<path d="M43.3932 5.34024C42.6582 2.03287 45.9123 -0.76476 49.0655 0.485876C55.3898 2.99308 64.3221 5.51213 75.1688 5.58326C86.715 5.66031 96.1689 2.93973 102.671 0.313988C105.735 -0.924794 108.942 1.6476 108.432 4.91348C107.721 9.45963 105.884 15.3394 101.337 20.7746C91.8242 32.1548 78.1384 32.4038 76.1942 32.4097C73.9478 32.3326 60.6117 31.6569 50.9267 20.4546C46.4754 15.3098 44.3771 9.76785 43.3932 5.34617V5.34024Z" fill="#2C2C70"/>
<path d="M116.149 9.82736C118.645 7.53354 122.693 8.96199 123.185 12.3108C124.175 19.0382 126.463 28.0357 131.821 37.4658C137.529 47.5065 144.606 54.3287 150.136 58.6496C152.738 60.6826 152.116 64.7487 149.033 65.94C144.742 67.5996 138.732 68.9451 131.75 67.73C117.133 65.1814 110.08 53.4574 109.102 51.7741C108.047 49.7884 101.966 37.8985 106.82 23.9104C109.055 17.4853 112.801 12.8976 116.138 9.82736H116.149Z" fill="#2C2C70"/>
<path d="M148.642 75.0798C151.872 76.0934 152.667 80.3136 150.011 82.4177C144.677 86.6379 138.032 93.1222 132.544 102.475C126.706 112.433 124.335 121.982 123.357 128.928C122.9 132.2 119.065 133.694 116.493 131.619C112.913 128.733 108.74 124.198 106.304 117.548C101.207 103.619 107.828 91.6463 108.8 89.9571C109.991 88.0485 117.246 76.8402 131.791 74.0544C138.471 72.7742 144.321 73.7284 148.642 75.0858V75.0798Z" fill="#2C2C70"/>
<path d="M108.378 135.851C109.113 139.158 105.859 141.956 102.706 140.705C96.3819 138.198 87.4496 135.679 76.6029 135.608C65.0567 135.531 55.6029 138.251 49.1007 140.877C46.0364 142.116 42.8298 139.543 43.3395 136.277C44.0508 131.731 45.8882 125.852 50.4344 120.416C59.9475 109.036 73.6333 108.787 75.5775 108.781C77.8239 108.858 91.16 109.534 100.845 120.736C105.296 125.881 107.395 131.423 108.378 135.845V135.851Z" fill="#2C2C70"/>
<path d="M35.6225 131.364C33.1272 133.658 29.0789 132.23 28.5869 128.881C27.5971 122.153 25.3092 113.156 19.951 103.726C14.2431 93.6852 7.16609 86.863 1.63603 82.542C-0.966002 80.509 -0.343648 76.443 2.73849 75.2516C7.02977 73.592 13.0399 72.2465 20.0222 73.4616C34.6386 76.0103 41.6919 87.7343 42.6699 89.4176C43.725 91.4032 49.8062 103.293 44.9519 117.281C42.7173 123.706 38.9714 128.294 35.6343 131.364H35.6225Z" fill="#2C2C70"/>
<path d="M3.13018 66.1118C-0.100134 65.0983 -0.894377 60.8781 1.761 58.7739C7.09546 54.5538 13.7398 48.0694 19.2284 38.7163C25.0667 28.7587 27.4376 19.21 28.4155 12.2633C28.8719 8.99152 32.7068 7.49786 35.2792 9.57238C38.8592 12.4589 43.032 16.9932 45.468 23.6435C50.5654 37.5724 43.9448 49.5453 42.9727 51.2346C41.7813 53.1431 34.5265 64.3514 19.9812 67.1372C13.3012 68.4175 7.4511 67.4632 3.13018 66.1059V66.1118Z" fill="#2C2C70"/>
<path d="M43.3932 5.34024C42.6582 2.03287 45.9123 -0.76476 49.0655 0.485876C55.3898 2.99308 64.3221 5.51213 75.1688 5.58326C86.715 5.66031 96.1689 2.93973 102.671 0.313988C105.735 -0.924794 108.942 1.6476 108.432 4.91348C107.721 9.45963 105.884 15.3394 101.337 20.7746C91.8242 32.1548 78.1384 32.4038 76.1942 32.4097C73.9478 32.3326 60.6117 31.6569 50.9267 20.4546C46.4754 15.3098 44.3771 9.76785 43.3932 5.34617V5.34024Z" fill="#2C2C70"/>
<path d="M75.8861 97.2656C90.6168 97.2656 102.558 85.324 102.558 70.5932C102.558 55.8625 90.6168 43.9209 75.8861 43.9209C61.1553 43.9209 49.2137 55.8625 49.2137 70.5932C49.2137 85.324 61.1553 97.2656 75.8861 97.2656Z" fill="#2C2C70"/>
</g>
<g clip-path="url(#clip1_717_10086)">
<path d="M228.395 99.4918C221.082 99.4918 214.653 97.7894 209.131 94.3958C203.61 91.0022 199.331 86.2534 196.307 80.1718C193.283 74.0902 191.771 67.0118 191.771 58.9478C191.771 50.8838 193.317 43.9174 196.419 37.8358C199.522 31.7542 203.89 26.9942 209.523 23.5558C215.157 20.1174 221.821 18.4038 229.515 18.4038C238.173 18.4038 245.419 20.4982 251.243 24.6758C257.067 28.8534 260.797 34.6774 262.443 42.1478H253.259C252.218 37.0742 249.619 33.0422 245.475 30.0518C241.331 27.0614 236.011 25.5718 229.515 25.5718C223.546 25.5718 218.338 26.9158 213.891 29.6038C209.445 32.2918 205.995 36.1222 203.531 41.0838C201.067 46.0454 199.835 52.0038 199.835 58.9478C199.835 65.8918 201.045 71.8614 203.475 76.8678C205.906 81.8742 209.266 85.7158 213.555 88.4038C217.845 91.0918 222.795 92.4358 228.395 92.4358C237.21 92.4358 243.829 89.8262 248.275 84.5958C252.722 79.3654 255.242 72.1638 255.835 62.9798H232.203V56.5958H263.899V98.1478H256.731L256.059 84.2598C254.122 87.4742 251.893 90.2294 249.395 92.5478C246.898 94.8662 243.941 96.6022 240.547 97.7558C237.154 98.9094 233.099 99.4918 228.395 99.4918Z" fill="#2C2C70"/>
<path d="M279.355 28.3716C277.787 28.3716 276.443 27.834 275.323 26.7476C274.203 25.6612 273.643 24.306 273.643 22.6596C273.643 21.0132 274.181 19.5796 275.267 18.5716C276.354 17.5636 277.709 17.0596 279.355 17.0596C280.845 17.0596 282.155 17.5636 283.275 18.5716C284.395 19.5796 284.955 20.946 284.955 22.6596C284.955 24.3732 284.418 25.6612 283.331 26.7476C282.245 27.834 280.923 28.3716 279.355 28.3716ZM275.435 98.1476V41.6996H283.275V98.1476H275.435Z" fill="#2C2C70"/>
<path d="M317.547 124.132C312.541 124.132 308.117 123.46 304.275 122.116C300.434 120.772 297.41 118.756 295.203 116.068C292.997 113.38 291.899 110.054 291.899 106.1C291.899 104.532 292.179 102.83 292.739 101.004C293.299 99.1784 294.397 97.3304 296.043 95.46C297.679 93.5896 299.997 91.9096 302.987 90.42L309.371 93.22C305.418 95.0904 302.842 97.1176 301.643 99.324C300.445 101.53 299.851 103.524 299.851 105.316C299.851 108.004 300.613 110.244 302.147 112.036C303.682 113.828 305.765 115.172 308.419 116.068C311.074 116.964 314.109 117.412 317.547 117.412C320.986 117.412 323.954 116.93 326.451 115.956C328.949 114.982 330.875 113.582 332.219 111.756C333.563 109.93 334.235 107.814 334.235 105.428C334.235 102.662 333.171 100.332 331.043 98.428C328.915 96.524 324.973 95.4264 319.227 95.124C314.669 94.8216 310.917 94.4296 307.971 93.948C305.026 93.4664 302.595 92.8616 300.691 92.156C298.787 91.4504 297.219 90.6776 295.987 89.86C294.755 89.0424 293.579 88.1464 292.459 87.172V84.596L303.211 74.404L310.379 76.98L299.851 86.388L300.523 83.364C301.419 83.9576 302.237 84.5176 302.987 85.044C303.738 85.5704 304.757 85.996 306.067 86.332C307.378 86.668 309.203 87.004 311.555 87.34C313.907 87.676 317.099 87.9896 321.131 88.292C326.283 88.6616 330.394 89.5576 333.451 90.98C336.509 92.4024 338.749 94.3064 340.171 96.692C341.594 99.0776 342.299 101.878 342.299 105.092C342.299 108.306 341.426 111.342 339.667 114.22C337.909 117.098 335.221 119.462 331.603 121.332C327.986 123.202 323.293 124.132 317.547 124.132ZM317.435 80.228C312.653 80.228 308.643 79.332 305.395 77.54C302.147 75.748 299.661 73.34 297.947 70.316C296.234 67.292 295.371 63.9544 295.371 60.292C295.371 56.6296 296.234 53.2024 297.947 50.212C299.661 47.2216 302.17 44.836 305.451 43.044C308.733 41.252 312.731 40.356 317.435 40.356C322.139 40.356 326.227 41.252 329.475 43.044C332.723 44.836 335.187 47.2216 336.867 50.212C338.547 53.2024 339.387 56.5624 339.387 60.292C339.387 64.0216 338.547 67.292 336.867 70.316C335.187 73.34 332.723 75.748 329.475 77.54C326.227 79.332 322.218 80.228 317.435 80.228ZM317.435 73.508C321.77 73.508 325.186 72.3656 327.683 70.092C330.181 67.8184 331.435 64.548 331.435 60.292C331.435 56.036 330.181 52.676 327.683 50.436C325.186 48.196 321.759 47.076 317.435 47.076C313.112 47.076 309.651 48.196 307.075 50.436C304.499 52.676 303.211 55.9576 303.211 60.292C303.211 64.6264 304.477 67.8184 307.019 70.092C309.562 72.3656 313.034 73.508 317.435 73.508ZM326.619 48.756L323.819 41.7H346.667V48.084L326.619 48.756Z" fill="#2C2C70"/>
<path d="M373.771 99.492C369.291 99.492 365.349 98.7416 361.955 97.252C358.562 95.7624 355.829 93.612 353.779 90.812C351.73 88.012 350.475 84.6744 350.027 80.788H358.203C358.573 82.9496 359.413 84.932 360.723 86.724C362.034 88.516 363.803 89.9384 366.043 90.98C368.283 92.0216 370.938 92.548 373.995 92.548C376.829 92.548 379.17 92.1336 380.995 91.316C382.821 90.4984 384.21 89.356 385.139 87.9C386.069 86.444 386.539 84.82 386.539 83.028C386.539 80.564 385.957 78.6376 384.803 77.26C383.65 75.8824 381.981 74.852 379.819 74.18C377.658 73.508 375.037 72.8696 371.979 72.276C369.437 71.828 367.029 71.2344 364.755 70.484C362.482 69.7336 360.421 68.7704 358.595 67.572C356.77 66.3736 355.314 64.8616 354.227 63.036C353.141 61.2104 352.603 59.06 352.603 56.596C352.603 53.3816 353.41 50.5704 355.011 48.14C356.613 45.7096 358.909 43.8056 361.899 42.428C364.89 41.0504 368.395 40.356 372.427 40.356C378.173 40.356 382.877 41.7896 386.539 44.668C390.202 47.5464 392.33 51.7464 392.923 57.268H385.083C384.781 54.2104 383.515 51.78 381.275 49.988C379.035 48.196 376.011 47.3 372.203 47.3C368.395 47.3 365.618 48.0616 363.635 49.596C361.653 51.1304 360.667 53.2024 360.667 55.812C360.667 57.4584 361.183 58.8696 362.235 60.068C363.277 61.2664 364.834 62.2856 366.883 63.148C368.933 64.0104 371.453 64.7384 374.443 65.332C378.027 66.004 381.331 66.8776 384.355 67.964C387.379 69.0504 389.843 70.6856 391.747 72.892C393.651 75.0984 394.603 78.212 394.603 82.244C394.682 85.604 393.853 88.5944 392.139 91.204C390.426 93.8136 388.018 95.852 384.915 97.308C381.813 98.764 378.106 99.492 373.771 99.492Z" fill="#2C2C70"/>
<path d="M403.675 98.1476V19.7476H418.011V52.3396H453.179V19.7476H467.515V98.1476H453.179V63.9876H418.011V98.1476H403.675Z" fill="#2C2C70"/>
<path d="M498.752 99.4917C491.808 99.4917 486.455 97.3301 482.68 92.9957C478.906 88.6613 477.024 82.3221 477.024 73.9557V42.5957H491.248V72.6117C491.248 77.3941 492.223 81.0453 494.16 83.5877C496.098 86.1301 499.167 87.3957 503.344 87.3957C507.298 87.3957 510.568 85.9733 513.144 83.1397C515.72 80.3061 517.008 76.3413 517.008 71.2677V42.5957H531.344V98.1477H518.688L517.568 88.7397C515.844 92.0213 513.368 94.6421 510.12 96.5797C506.872 98.5173 503.087 99.4917 498.752 99.4917Z" fill="#2C2C70"/>
<path d="M574.464 99.4913C570.287 99.4913 566.624 98.7073 563.488 97.1393C560.352 95.5713 557.81 93.3649 555.872 90.5313L554.304 98.1473H541.536V17.5073H555.872V50.5473C557.664 48.0833 560.039 45.9217 562.984 44.0513C565.93 42.1809 569.76 41.2513 574.464 41.2513C579.695 41.2513 584.354 42.5169 588.464 45.0593C592.575 47.6017 595.823 51.0737 598.208 55.4753C600.594 59.8769 601.792 64.8833 601.792 70.4833C601.792 76.0833 600.594 81.0673 598.208 85.4353C595.823 89.8033 592.575 93.2417 588.464 95.7393C584.354 98.2369 579.695 99.4913 574.464 99.4913ZM571.44 86.9473C575.999 86.9473 579.762 85.4129 582.752 82.3553C585.743 79.2977 587.232 75.3329 587.232 70.4833C587.232 65.6337 585.743 61.6353 582.752 58.4993C579.762 55.3633 575.999 53.7953 571.44 53.7953C566.882 53.7953 563.018 55.3409 560.072 58.4433C557.127 61.5457 555.648 65.5217 555.648 70.3713C555.648 75.2209 557.127 79.1969 560.072 82.2993C563.018 85.4017 566.815 86.9473 571.44 86.9473Z" fill="#2C2C70"/>
</g>
<defs>
<clipPath id="clip0_717_10086">
<rect width="151.771" height="141.191" fill="white"/>
</clipPath>
<clipPath id="clip1_717_10086">
<rect width="410.021" height="107.072" fill="white" transform="translate(191.771 17.0596)"/>
</clipPath>
</defs>
</svg>
