<?xml version="1.0" encoding="utf-8"?>
<!-- Generator: Adobe Illustrator 26.0.1, SVG Export Plug-In . SVG Version: 6.00 Build 0)  -->
<svg version="1.1" id="Layer_1" xmlns="http://www.w3.org/2000/svg" xmlns:xlink="http://www.w3.org/1999/xlink" x="10px" y="10px"
	 viewBox="0 0 1600 1200" style="enable-background:new 0 0 1600 1200;" xml:space="preserve">
<style type="text/css">
	.st0{fill:url(#SVGID_1_);}
	.st1{fill:url(#SVGID_00000127046220227408480300000004763428577703247535_);}
	.st2{fill:url(#SVGID_00000067197902832784123620000005048596462758996612_);}
	.st3{fill:#1E2939;}
</style>
<g>
	<g>
		<linearGradient id="SVGID_1_" gradientUnits="userSpaceOnUse" x1="324.0307" y1="433.1606" x2="558.4918" y2="961.4044">
			<stop  offset="0" style="stop-color:#0F3CDC"/>
			<stop  offset="0.4777" style="stop-color:#4F63E5"/>
			<stop  offset="1" style="stop-color:#948BF3"/>
		</linearGradient>
		<path class="st0" d="M443.5,709.7l-44.6-8.8c-0.9-0.2-1.7,0.5-1.7,1.4v22.5c0,0.9,0.8,1.6,1.7,1.4l44.6-8.8c3.3-0.7,6.7-0.7,10,0
			l44.6,8.8c0.9,0.2,1.7-0.5,1.7-1.4v-22.5c0-0.9-0.8-1.6-1.7-1.4l-44.6,8.8C450.2,710.3,446.8,710.3,443.5,709.7z"/>
		<g>
			
				<linearGradient id="SVGID_00000020376997963041589530000016560379849862082186_" gradientUnits="userSpaceOnUse" x1="377.3165" y1="409.5097" x2="611.7776" y2="937.7535">
				<stop  offset="0" style="stop-color:#0F3CDC"/>
				<stop  offset="0.4777" style="stop-color:#4F63E5"/>
				<stop  offset="1" style="stop-color:#948BF3"/>
			</linearGradient>
			<path style="fill:url(#SVGID_00000020376997963041589530000016560379849862082186_);" d="M517.3,540.8c-9.9-1-19.1,1.9-26.2,7.3
				c-10.6,8.1-23.9,11.9-37.2,11.9h-4.3c-13.3,0-26.6-3.8-37.2-11.9c-7.1-5.5-16.3-8.4-26.2-7.3c-16.8,1.8-30.5,15.4-32.4,32.2
				c-2.4,22.1,14.8,40.8,36.4,40.8c7.9,0,15.2-2.5,21.1-6.7c11.1-7.9,24.1-12.7,37.7-12.7h5.6c13.6,0,26.6,4.8,37.7,12.7
				c6,4.2,13.3,6.7,21.1,6.7c21.6,0,38.8-18.7,36.4-40.8C547.8,556.2,534.2,542.6,517.3,540.8z"/>
			
				<linearGradient id="SVGID_00000115494670724691934340000013246425149220159671_" gradientUnits="userSpaceOnUse" x1="377.3179" y1="409.5091" x2="611.779" y2="937.7529">
				<stop  offset="0" style="stop-color:#0F3CDC"/>
				<stop  offset="0.4777" style="stop-color:#4F63E5"/>
				<stop  offset="1" style="stop-color:#948BF3"/>
			</linearGradient>
			<path style="fill:url(#SVGID_00000115494670724691934340000013246425149220159671_);" d="M509.4,473.8H394
				c-57,0-103.4,46.4-103.4,103.4c0,57,46.4,103.4,103.4,103.4h57.7h57.7c57,0,103.4-46.4,103.4-103.4
				C612.8,520.1,566.4,473.8,509.4,473.8z M510.1,646.3L510.1,646.3c-0.1,0-0.2,0-0.3,0h-58.1h-56.5c-37.8,0-69.5-29.9-70.3-67.8
				c-0.7-38.7,30.5-70.5,69.1-70.5h114.2c37.7,0,69.4,29.8,70.2,67.5C579.4,614.2,548.4,645.9,510.1,646.3z"/>
		</g>
	</g>
	<g>
		<path class="st3" d="M713.9,507.4h29.7v122.5c0,15.5-4.7,27.8-14.2,37c-9.5,9.1-21.7,13.7-36.6,13.7c-16.6,0-29.7-4.1-39.4-12.2
			c-9.7-8.2-14.3-19.9-13.9-35.3l-0.1,0.2h29.3c0,8,2.2,14.2,6.6,18.5c4.4,4.3,10.2,6.4,17.6,6.4c6.2,0,11.3-2.6,15.2-7.7
			c3.9-5.1,5.9-12,5.9-20.6V507.4z"/>
		<path class="st3" d="M755.4,618.9c0-17.4,4.8-31.6,14.5-42.7c9.7-11.1,23.1-16.6,40.2-16.6c17.2,0,30.7,5.5,40.4,16.6
			c9.8,11,14.6,25.3,14.6,42.8v2.3c0,17.6-4.9,31.8-14.6,42.8c-9.7,11-23.1,16.5-40.3,16.5c-17.2,0-30.6-5.5-40.4-16.5
			c-9.7-11-14.6-25.3-14.6-42.8V618.9z M785.2,621.2c0,11,2,20,5.9,26.8c3.9,6.8,10.4,10.2,19.3,10.2c8.7,0,15-3.4,19-10.3
			c4-6.8,6-15.7,6-26.7v-2.3c0-10.8-2-19.6-6-26.5c-4-6.9-10.4-10.4-19.2-10.4c-8.7,0-15,3.5-19,10.4c-4,6.9-6,15.8-6,26.4V621.2z"
			/>
		<path class="st3" d="M980.8,623.3c0,17.5-3.9,31.4-11.6,41.7c-7.7,10.3-18.9,15.5-33.4,15.5c-6.7,0-12.6-1.4-17.6-4.2
			c-5-2.8-9.7-7.8-14.2-14.9l-3,19.1h-25.1V507.4h29.7v69.3c4.7-6.4,9.3-10.9,14-13.4c4.6-2.5,10-3.7,16-3.7
			c14.7,0,25.9,5.6,33.6,16.7c7.7,11.1,11.6,26,11.6,44.8V623.3z M951.1,621c0-11.7-1.8-21.1-5.3-28.1c-3.5-7.1-9.6-10.6-18.3-10.6
			c-5.2,0-9.6,1.1-13.2,3.3c-3.6,2.2-6.5,5.4-8.6,9.7V646c2.2,3.9,5.1,6.8,8.7,8.8c3.6,2,8.1,3,13.3,3c8.7,0,14.8-3,18.2-9.1
			c3.4-6.1,5.2-14.6,5.2-25.5V621z"/>
		<path class="st3" d="M1096.4,623.3c0,17.5-3.9,31.4-11.6,41.7c-7.7,10.3-18.9,15.5-33.4,15.5c-6.7,0-12.6-1.4-17.6-4.2
			c-5-2.8-9.7-7.8-14.2-14.9l-3,19.1h-25.1V507.4h29.7v69.3c4.7-6.4,9.3-10.9,14-13.4c4.6-2.5,10-3.7,16-3.7
			c14.7,0,25.9,5.6,33.6,16.7c7.7,11.1,11.6,26,11.6,44.8V623.3z M1066.7,621c0-11.7-1.8-21.1-5.3-28.1c-3.5-7.1-9.6-10.6-18.3-10.6
			c-5.2,0-9.6,1.1-13.2,3.3c-3.6,2.2-6.5,5.4-8.6,9.7V646c2.2,3.9,5.1,6.8,8.7,8.8c3.6,2,8.1,3,13.3,3c8.7,0,14.8-3,18.2-9.1
			c3.4-6.1,5.2-14.6,5.2-25.5V621z"/>
		<path class="st3" d="M1145.2,629.8l1.5,7.5h2.3l22.7-75.5h32.1l-47.6,134.9c-3.4,8.3-7.8,15.3-13.4,21c-5.6,5.7-14,8.5-25.3,8.5
			c-2.6,0-5.1-0.2-7.3-0.7c-2.3-0.4-4.7-1-7.4-1.6l3.4-21.3c0.3,0.1,1,0.2,2.1,0.3c1.1,0.1,2.1,0.2,3.1,0.2c5.6,0,9.8-1.4,12.8-4.1
			c3-2.7,5.3-6.1,6.9-10.1l3.9-9.7l-41.8-117.5h32L1145.2,629.8z"/>
		<path class="st3" d="M1199.5,618.9c0-17.4,4.8-31.6,14.5-42.7c9.7-11.1,23.1-16.6,40.2-16.6c17.2,0,30.7,5.5,40.4,16.6
			c9.8,11,14.6,25.3,14.6,42.8v2.3c0,17.6-4.9,31.8-14.6,42.8c-9.7,11-23.1,16.5-40.3,16.5c-17.2,0-30.6-5.5-40.4-16.5
			c-9.7-11-14.6-25.3-14.6-42.8V618.9z M1229.3,621.2c0,11,2,20,5.9,26.8s10.4,10.2,19.3,10.2c8.7,0,15-3.4,19-10.3
			c4-6.8,6-15.7,6-26.7v-2.3c0-10.8-2-19.6-6-26.5c-4-6.9-10.4-10.4-19.2-10.4c-8.7,0-15,3.5-19,10.4c-4,6.9-6,15.8-6,26.4V621.2z"
			/>
	</g>
</g>
</svg>
