<svg width="742" height="175" viewBox="0 0 742 175" fill="none" xmlns="http://www.w3.org/2000/svg">
<g clip-path="url(#clip0_727_1768)">
<path d="M53.5033 6.58511C52.5971 2.50718 56.6093 -0.942255 60.4972 0.59976C68.295 3.6911 79.3083 6.79705 92.6822 6.88475C106.918 6.97975 118.575 3.62532 126.592 0.387824C130.37 -1.13957 134.324 2.03215 133.695 6.05893C132.818 11.6643 130.553 18.9139 124.948 25.6155C113.218 39.6471 96.3435 39.954 93.9465 39.9613C91.1767 39.8663 74.7334 39.0332 62.7919 25.2208C57.3035 18.8774 54.7165 12.0443 53.5033 6.59242V6.58511Z" fill="#D0D0FF"/>
<path d="M143.21 12.1171C146.287 9.28882 151.279 11.0501 151.885 15.1792C153.106 23.4739 155.927 34.5676 162.533 46.1949C169.571 58.5748 178.297 66.9865 185.115 72.3141C188.323 74.8208 187.556 79.8342 183.756 81.3031C178.465 83.3494 171.054 85.0083 162.445 83.5102C144.424 80.3677 135.727 65.9122 134.521 63.8367C133.22 61.3885 125.722 46.7284 131.707 29.4812C134.463 21.5592 139.081 15.9027 143.196 12.1171H143.21Z" fill="#D0D0FF"/>
<path d="M183.273 92.5736C187.256 93.8232 188.236 99.0266 184.962 101.621C178.384 106.824 170.192 114.819 163.425 126.352C156.226 138.629 153.303 150.403 152.097 158.968C151.534 163.002 146.806 164.844 143.634 162.286C139.22 158.727 134.075 153.136 131.071 144.936C124.786 127.762 132.95 113 134.148 110.917C135.617 108.564 144.562 94.7441 162.496 91.3093C170.733 89.7307 177.946 90.9073 183.273 92.5809V92.5736Z" fill="#D0D0FF"/>
<path d="M133.629 167.502C134.535 171.58 130.523 175.03 126.635 173.488C118.837 170.396 107.824 167.29 94.4502 167.203C80.214 167.108 68.5575 170.462 60.5405 173.699C56.7622 175.227 52.8085 172.055 53.437 168.028C54.314 162.423 56.5795 155.173 62.1848 148.472C73.9144 134.44 90.7888 134.133 93.1859 134.126C95.9557 134.221 112.399 135.054 124.34 148.866C129.829 155.21 132.416 162.043 133.629 167.495V167.502Z" fill="#D0D0FF"/>
<path d="M43.9221 161.971C40.8453 164.799 35.8539 163.038 35.2473 158.909C34.0269 150.614 31.2059 139.52 24.5994 127.893C17.5617 115.513 8.83576 107.101 2.01729 101.774C-1.19098 99.2669 -0.423625 94.2536 3.3766 92.7846C8.66768 90.7384 16.0781 89.0794 24.6871 90.5776C42.7089 93.7201 51.4056 108.176 52.6114 110.251C53.9123 112.699 61.4104 127.359 55.425 144.607C52.6699 152.529 48.0511 158.185 43.9367 161.971H43.9221Z" fill="#D0D0FF"/>
<path d="M3.85955 81.5147C-0.123378 80.265 -1.10267 75.0616 2.17137 72.4673C8.74868 67.2639 16.9411 59.2688 23.7084 47.7366C30.9069 35.4589 33.8301 23.6855 35.036 15.1204C35.5987 11.0863 40.3271 9.24467 43.4988 11.8025C47.9129 15.3616 53.0578 20.9523 56.0615 29.152C62.3464 46.3261 54.1833 61.0885 52.9847 63.1713C51.5158 65.5245 42.5707 79.3442 24.6365 82.779C16.4003 84.3576 9.18717 83.181 3.85955 81.5074V81.5147Z" fill="#D0D0FF"/>
<path d="M53.5033 6.58511C52.5971 2.50718 56.6093 -0.942255 60.4972 0.59976C68.295 3.6911 79.3083 6.79705 92.6822 6.88475C106.918 6.97975 118.575 3.62532 126.592 0.387824C130.37 -1.13957 134.324 2.03215 133.695 6.05893C132.818 11.6643 130.553 18.9139 124.948 25.6155C113.218 39.6471 96.3435 39.954 93.9465 39.9613C91.1767 39.8663 74.7334 39.0332 62.7919 25.2208C57.3035 18.8774 54.7165 12.0443 53.5033 6.59242V6.58511Z" fill="#D0D0FF"/>
<path d="M93.5663 119.927C111.729 119.927 126.453 105.204 126.453 87.0409C126.453 68.8781 111.729 54.1543 93.5663 54.1543C75.4036 54.1543 60.6797 68.8781 60.6797 87.0409C60.6797 105.204 75.4036 119.927 93.5663 119.927Z" fill="#D0D0FF"/>
</g>
<g clip-path="url(#clip1_727_1768)">
<path d="M281.608 122.672C272.59 122.672 264.664 120.573 257.856 116.388C251.048 112.204 245.772 106.349 242.044 98.8504C238.315 91.3519 236.451 82.6243 236.451 72.6815C236.451 62.7387 238.357 54.1493 242.182 46.6508C246.007 39.1522 251.393 33.2832 258.339 29.0437C265.285 24.8042 273.502 22.6914 282.989 22.6914C293.664 22.6914 302.598 25.2738 309.779 30.4247C316.96 35.5756 321.559 42.7565 323.589 51.9674H312.265C310.981 45.7117 307.777 40.7403 302.667 37.0532C297.558 33.3661 290.998 31.5294 282.989 31.5294C275.628 31.5294 269.207 33.1866 263.725 36.5008C258.242 39.8151 253.989 44.5379 250.951 50.6555C247.913 56.7731 246.394 64.1197 246.394 72.6815C246.394 81.2434 247.885 88.6038 250.882 94.7766C253.879 100.949 258.021 105.686 263.31 109C268.599 112.315 274.703 113.972 281.608 113.972C292.476 113.972 300.637 110.754 306.12 104.305C311.602 97.8561 314.709 88.9766 315.441 77.6529H286.303V69.7815H325.384V121.015H316.546L315.717 103.891C313.328 107.854 310.58 111.251 307.501 114.11C304.421 116.968 300.775 119.109 296.591 120.531C292.407 121.954 287.408 122.672 281.608 122.672Z" fill="#D0D0FF"/>
<path d="M344.441 34.9817C342.507 34.9817 340.85 34.3188 339.469 32.9793C338.088 31.6398 337.398 29.9689 337.398 27.9389C337.398 25.9089 338.061 24.1413 339.4 22.8985C340.74 21.6556 342.411 21.0342 344.441 21.0342C346.277 21.0342 347.893 21.6556 349.274 22.8985C350.655 24.1413 351.345 25.826 351.345 27.9389C351.345 30.0517 350.683 31.6398 349.343 32.9793C348.004 34.3188 346.374 34.9817 344.441 34.9817ZM339.607 121.014V51.4149H349.274V121.014H339.607Z" fill="#D0D0FF"/>
<path d="M391.531 153.052C385.358 153.052 379.903 152.224 375.167 150.567C370.43 148.909 366.702 146.424 363.981 143.11C361.261 139.795 359.907 135.694 359.907 130.819C359.907 128.886 360.253 126.787 360.943 124.536C361.633 122.285 362.987 120.006 365.017 117.7C367.033 115.394 369.891 113.323 373.579 111.486L381.45 114.938C376.575 117.244 373.399 119.744 371.921 122.464C370.444 125.185 369.712 127.643 369.712 129.852C369.712 133.167 370.651 135.929 372.543 138.138C374.435 140.348 377.003 142.005 380.276 143.11C383.549 144.214 387.291 144.767 391.531 144.767C395.77 144.767 399.43 144.173 402.509 142.971C405.589 141.77 407.964 140.044 409.621 137.793C411.278 135.542 412.107 132.932 412.107 129.991C412.107 126.58 410.795 123.707 408.171 121.36C405.547 119.012 400.686 117.659 393.602 117.286C387.982 116.913 383.356 116.43 379.724 115.836C376.092 115.242 373.095 114.496 370.748 113.626C368.4 112.756 366.467 111.804 364.948 110.795C363.429 109.787 361.979 108.683 360.598 107.481V104.305L373.855 91.7385L382.693 94.9146L369.712 106.515L370.541 102.786C371.645 103.518 372.653 104.208 373.579 104.857C374.504 105.506 375.76 106.031 377.376 106.445C378.992 106.86 381.243 107.274 384.143 107.688C387.043 108.103 390.978 108.489 395.95 108.862C402.302 109.318 407.37 110.423 411.14 112.176C414.91 113.93 417.672 116.278 419.426 119.219C421.18 122.161 422.05 125.613 422.05 129.576C422.05 133.54 420.973 137.282 418.804 140.831C416.636 144.38 413.322 147.294 408.862 149.6C404.401 151.906 398.615 153.052 391.531 153.052ZM391.393 98.9194C385.496 98.9194 380.552 97.8146 376.548 95.6051C372.543 93.3956 369.477 90.4266 367.364 86.698C365.252 82.9695 364.188 78.8543 364.188 74.3386C364.188 69.8229 365.252 65.5972 367.364 61.9101C369.477 58.223 372.571 55.2816 376.617 53.0721C380.663 50.8626 385.593 49.7578 391.393 49.7578C397.193 49.7578 402.233 50.8626 406.238 53.0721C410.243 55.2816 413.281 58.223 415.352 61.9101C417.424 65.5972 418.459 69.74 418.459 74.3386C418.459 78.9371 417.424 82.9695 415.352 86.698C413.281 90.4266 410.243 93.3956 406.238 95.6051C402.233 97.8146 397.289 98.9194 391.393 98.9194ZM391.393 90.6337C396.737 90.6337 400.949 89.2251 404.028 86.4218C407.108 83.6185 408.655 79.5862 408.655 74.3386C408.655 69.091 407.108 64.9482 404.028 62.1863C400.949 59.4244 396.723 58.0435 391.393 58.0435C386.062 58.0435 381.795 59.4244 378.619 62.1863C375.443 64.9482 373.855 68.9943 373.855 74.3386C373.855 79.6828 375.415 83.6185 378.55 86.4218C381.685 89.2251 385.966 90.6337 391.393 90.6337ZM402.716 60.1149L399.264 51.4149H427.435V59.2863L402.716 60.1149Z" fill="#D0D0FF"/>
<path d="M460.854 122.672C455.33 122.672 450.469 121.746 446.285 119.91C442.101 118.073 438.731 115.422 436.204 111.969C433.677 108.517 432.13 104.402 431.578 99.6098H441.659C442.115 102.275 443.15 104.719 444.766 106.929C446.382 109.138 448.564 110.892 451.325 112.176C454.087 113.461 457.36 114.11 461.13 114.11C464.624 114.11 467.51 113.599 469.761 112.591C472.012 111.583 473.724 110.174 474.871 108.379C476.017 106.584 476.597 104.581 476.597 102.372C476.597 99.3337 475.879 96.9584 474.456 95.2599C473.034 93.5613 470.976 92.2908 468.311 91.4623C465.646 90.6337 462.414 89.8466 458.644 89.1147C455.51 88.5623 452.541 87.8304 449.737 86.9052C446.934 85.9799 444.393 84.7923 442.142 83.3147C439.891 81.8371 438.096 79.9728 436.757 77.7219C435.417 75.471 434.754 72.8196 434.754 69.7815C434.754 65.8182 435.748 62.352 437.723 59.3554C439.698 56.3587 442.529 54.0111 446.216 52.3126C449.903 50.614 454.225 49.7578 459.197 49.7578C466.281 49.7578 472.081 51.5254 476.597 55.0744C481.112 58.6235 483.736 63.802 484.468 70.61H474.801C474.429 66.8401 472.868 63.8434 470.106 61.6339C467.344 59.4244 463.616 58.3197 458.921 58.3197C454.225 58.3197 450.801 59.2587 448.356 61.1506C445.912 63.0425 444.697 65.5972 444.697 68.8148C444.697 70.8448 445.332 72.5848 446.63 74.0624C447.915 75.54 449.834 76.7967 452.361 77.86C454.888 78.9233 457.995 79.8209 461.683 80.5528C466.102 81.3814 470.175 82.4585 473.904 83.798C477.632 85.1376 480.67 87.1537 483.018 89.8742C485.366 92.5947 486.539 96.4337 486.539 101.405C486.636 105.548 485.614 109.235 483.501 112.453C481.389 115.67 478.42 118.184 474.594 119.979C470.769 121.774 466.198 122.672 460.854 122.672Z" fill="#D0D0FF"/>
<path d="M497.725 121.014V24.3477H515.401V64.5331H558.763V24.3477H576.439V121.014H558.763V78.8949H515.401V121.014H497.725Z" fill="#D0D0FF"/>
<path d="M614.954 122.671C606.392 122.671 599.791 120.006 595.137 114.662C590.483 109.318 588.163 101.502 588.163 91.1859V52.5195H605.701V89.5288C605.701 95.4254 606.903 99.9273 609.292 103.062C611.681 106.197 615.465 107.757 620.615 107.757C625.49 107.757 629.523 106.003 632.699 102.51C635.875 99.0159 637.463 94.1273 637.463 87.8717V52.5195H655.139V121.014H639.534L638.153 109.414C636.027 113.461 632.975 116.692 628.97 119.081C624.965 121.47 620.298 122.671 614.954 122.671Z" fill="#D0D0FF"/>
<path d="M708.305 122.672C703.154 122.672 698.639 121.705 694.772 119.772C690.905 117.839 687.771 115.118 685.381 111.624L683.448 121.015H667.705V21.5869H685.381V62.3247C687.591 59.2866 690.519 56.6214 694.15 54.3153C697.782 52.0091 702.505 50.8629 708.305 50.8629C714.754 50.8629 720.499 52.4234 725.567 55.5581C730.635 58.6928 734.64 62.9738 737.581 68.4009C740.522 73.828 742 80.0008 742 86.9055C742 93.8102 740.522 99.9554 737.581 105.341C734.64 110.727 730.635 114.966 725.567 118.046C720.499 121.125 714.754 122.672 708.305 122.672ZM704.577 107.205C710.197 107.205 714.837 105.313 718.524 101.543C722.211 97.7735 724.048 92.885 724.048 86.9055C724.048 80.926 722.211 75.996 718.524 72.1294C714.837 68.2628 710.197 66.3294 704.577 66.3294C698.956 66.3294 694.192 68.2351 690.56 72.0604C686.928 75.8856 685.105 80.7879 685.105 86.7674C685.105 92.7469 686.928 97.6492 690.56 101.474C694.192 105.3 698.873 107.205 704.577 107.205Z" fill="#D0D0FF"/>
</g>
<defs>
<clipPath id="clip0_727_1768">
<rect width="187.132" height="174.087" fill="white"/>
</clipPath>
<clipPath id="clip1_727_1768">
<rect width="505.549" height="132.018" fill="white" transform="translate(236.451 21.0342)"/>
</clipPath>
</defs>
</svg>
