<!DOCTYPE svg PUBLIC "-//W3C//DTD SVG 1.1//EN" "http://www.w3.org/Graphics/SVG/1.1/DTD/svg11.dtd">

<!-- Uploaded to: SVG Repo, www.svgrepo.com, Transformed by: SVG Repo Mixer Tools -->
<svg fill="#39ff64" height="800px" width="800px" version="1.1" id="Layer_1" xmlns="http://www.w3.org/2000/svg" xmlns:xlink="http://www.w3.org/1999/xlink" viewBox="0 0 512 512" xml:space="preserve" stroke="#39ff64">

<g id="SVGRepo_bgCarrier" stroke-width="0"/>

<g id="SVGRepo_tracerCarrier" stroke-linecap="round" stroke-linejoin="round"/>

<g id="SVGRepo_iconCarrier"> <g> <g> <path d="M298.799,97.341c-28.426-7.669-58.347-7.594-86.524,0.217l8.118,29.284c22.94-6.359,47.315-6.413,70.492-0.161 c34.543,9.318,63.389,31.531,81.225,62.544l26.342-15.148C376.569,136.026,341.179,108.774,298.799,97.341z"/> </g> </g> <g> <g> <path d="M501.717,159.736c11.312-19.299,13.303-35.599,5.914-48.445c-7.347-12.776-22.311-19.254-44.481-19.254 c-0.161,0-0.322,0.001-0.484,0.002c-15.455,0.065-34.68,3.196-57.227,9.306c-25.842-25.044-57.743-43.269-93.447-52.901 c-55.439-14.956-113.386-7.427-163.164,21.2c-49.779,28.626-85.43,74.924-100.385,130.364 c-9.632,35.704-9.924,72.445-1.274,107.376c-16.662,16.457-29.06,31.531-36.885,44.881C-1.029,371.563-3.02,387.861,4.369,400.71 c7.348,12.776,22.309,19.253,44.479,19.253c0.122,0,0.246,0,0.368-0.001c15.475-0.05,34.739-3.183,57.344-9.307 c25.842,25.044,57.744,43.269,93.448,52.901c18.634,5.027,37.543,7.514,56.339,7.513c37.123-0.002,73.779-9.708,106.825-28.713 c49.779-28.626,85.43-74.924,100.385-130.364c9.632-35.704,9.924-72.444,1.275-107.375 C481.493,188.161,493.891,173.085,501.717,159.736z M30.711,385.561c-1.396-2.427,0.309-16.531,27.304-45.732 c3.383,7.945,7.257,15.739,11.628,23.341c4.371,7.601,9.159,14.868,14.323,21.786C45.162,393.595,32.106,387.986,30.711,385.561z M95.985,348.023C71.404,305.28,64.94,255.525,77.783,207.921c12.842-47.603,43.454-87.356,86.195-111.937 c28.377-16.319,59.845-24.654,91.725-24.654c16.136,0,32.377,2.135,48.375,6.451c47.603,12.842,87.356,43.454,111.937,86.195 c5.816,10.114,10.605,20.624,14.377,31.402c-37.588,34.164-90.02,71.186-148.857,105.023 c-58.838,33.837-117.205,60.535-165.64,75.84C108.477,367.561,101.801,358.137,95.985,348.023z M434.217,304.079 c-12.842,47.603-43.454,87.356-86.195,111.937c-42.742,24.58-92.495,31.043-140.102,18.202 c-25.002-6.745-47.835-18.399-67.445-34.131c47.164-16.431,101.612-41.945,156.207-73.342 c54.596-31.397,104.033-65.625,141.956-98.126C442.373,253.48,440.962,279.075,434.217,304.079z M453.985,172.171 c-3.382-7.945-7.257-15.74-11.628-23.342c-4.371-7.601-9.159-14.869-14.324-21.787c38.797-8.64,51.859-3.034,53.256-0.603 C482.685,128.866,480.98,142.969,453.985,172.171z"/> </g> </g> </g>

</svg>