<svg xmlns="http://www.w3.org/2000/svg" xmlns:xlink="http://www.w3.org/1999/xlink" width="40" zoomAndPan="magnify" viewBox="0 0 30 30.000001" height="40" preserveAspectRatio="xMidYMid meet" version="1.0"><defs><clipPath id="5189f9623f"><path d="M 3.386719 2.902344 L 26.613281 2.902344 L 26.613281 26.128906 L 3.386719 26.128906 Z M 3.386719 2.902344 " clip-rule="nonzero"/></clipPath></defs><g clip-path="url(#5189f9623f)"><path fill="#1e1e53" d="M 24.671875 2.902344 L 5.339844 2.902344 C 4.269531 2.902344 3.410156 3.773438 3.410156 4.832031 L 3.410156 24.199219 C 3.410156 25.269531 4.28125 26.128906 5.339844 26.128906 L 24.660156 26.128906 C 25.730469 26.128906 26.589844 25.257812 26.589844 24.199219 L 26.589844 4.832031 C 26.601562 3.773438 25.742188 2.902344 24.671875 2.902344 Z M 10.277344 22.0625 L 6.847656 22.0625 L 6.847656 11.769531 L 10.277344 11.769531 Z M 8.558594 10.523438 C 7.476562 10.523438 6.605469 9.652344 6.605469 8.574219 C 6.605469 7.492188 7.476562 6.621094 8.558594 6.621094 C 9.636719 6.621094 10.507812 7.492188 10.507812 8.574219 C 10.507812 9.652344 9.636719 10.523438 8.558594 10.523438 Z M 23.171875 22.0625 L 19.734375 22.0625 L 19.652344 15.949219 C 19.652344 15.949219 19.734375 14.324219 17.957031 14.335938 C 16.179688 14.347656 15.933594 15.949219 15.933594 15.949219 L 15.933594 22.0625 L 12.472656 22.0625 L 12.472656 11.769531 L 15.796875 11.769531 L 15.796875 13.1875 C 15.796875 13.1875 15.933594 12.722656 16.703125 12.175781 C 17.46875 11.628906 18.734375 11.511719 19.28125 11.535156 C 19.828125 11.558594 20.570312 11.464844 21.8125 12.324219 C 23.152344 13.242188 23.183594 15.648438 23.183594 15.648438 Z M 23.171875 22.0625 " fill-opacity="1" fill-rule="nonzero"/></g></svg>