<svg xmlns="http://www.w3.org/2000/svg" xmlns:xlink="http://www.w3.org/1999/xlink" width="40" zoomAndPan="magnify" viewBox="0 0 30 30.000001" height="40" preserveAspectRatio="xMidYMid meet" version="1.0"><defs><clipPath id="6aa92b5811"><path d="M 3.386719 2.902344 L 26.613281 2.902344 L 26.613281 26.128906 L 3.386719 26.128906 Z M 3.386719 2.902344 " clip-rule="nonzero"/></clipPath></defs><g clip-path="url(#6aa92b5811)"><path fill="#1e1e53" d="M 23.210938 6.304688 C 21.019531 4.109375 18.101562 2.902344 15 2.902344 C 11.898438 2.902344 8.980469 4.109375 6.789062 6.304688 C 4.59375 8.496094 3.386719 11.414062 3.386719 14.515625 C 3.386719 17.617188 4.59375 20.535156 6.789062 22.726562 C 8.980469 24.921875 11.898438 26.128906 15 26.128906 C 18.101562 26.128906 21.019531 24.921875 23.210938 22.726562 C 25.40625 20.535156 26.613281 17.617188 26.613281 14.515625 C 26.613281 11.414062 25.40625 8.496094 23.210938 6.304688 Z M 4.671875 14.515625 C 4.671875 13.222656 4.910156 11.984375 5.347656 10.84375 L 9.523438 10.84375 C 9.335938 12.011719 9.238281 13.25 9.238281 14.515625 C 9.238281 15.742188 9.332031 16.9375 9.503906 18.070312 L 5.300781 18.070312 C 4.894531 16.964844 4.671875 15.765625 4.671875 14.515625 Z M 10.523438 14.515625 C 10.523438 13.242188 10.628906 12 10.824219 10.84375 L 14.359375 10.84375 L 14.359375 18.070312 L 10.804688 18.070312 C 10.621094 16.949219 10.523438 15.75 10.523438 14.515625 Z M 18.039062 7.03125 C 18.390625 7.785156 18.679688 8.636719 18.910156 9.558594 L 15.640625 9.558594 L 15.640625 4.308594 C 16.511719 4.625 17.359375 5.578125 18.039062 7.03125 Z M 14.359375 4.308594 L 14.359375 9.558594 L 11.089844 9.558594 C 11.320312 8.636719 11.609375 7.785156 11.960938 7.03125 C 12.640625 5.578125 13.488281 4.625 14.359375 4.308594 Z M 14.359375 19.355469 L 14.359375 24.726562 C 13.488281 24.40625 12.640625 23.453125 11.960938 22.003906 C 11.59375 21.214844 11.292969 20.324219 11.0625 19.355469 Z M 15.640625 24.726562 L 15.640625 19.355469 L 18.9375 19.355469 C 18.707031 20.324219 18.40625 21.214844 18.039062 22.003906 C 17.359375 23.453125 16.511719 24.40625 15.640625 24.726562 Z M 15.640625 18.070312 L 15.640625 10.84375 L 19.175781 10.84375 C 19.371094 12 19.476562 13.242188 19.476562 14.515625 C 19.476562 15.75 19.378906 16.949219 19.195312 18.070312 Z M 20.476562 10.84375 L 24.652344 10.84375 C 25.089844 11.984375 25.328125 13.222656 25.328125 14.515625 C 25.328125 15.765625 25.105469 16.964844 24.699219 18.070312 L 20.496094 18.070312 C 20.667969 16.9375 20.761719 15.742188 20.761719 14.515625 C 20.761719 13.25 20.664062 12.011719 20.476562 10.84375 Z M 24.058594 9.558594 L 20.226562 9.558594 C 19.972656 8.4375 19.625 7.398438 19.203125 6.488281 C 18.871094 5.78125 18.503906 5.171875 18.101562 4.664062 C 20.660156 5.46875 22.789062 7.246094 24.058594 9.558594 Z M 11.898438 4.664062 C 11.496094 5.171875 11.128906 5.78125 10.796875 6.488281 C 10.375 7.398438 10.027344 8.4375 9.773438 9.558594 L 5.941406 9.558594 C 7.210938 7.246094 9.339844 5.46875 11.898438 4.664062 Z M 5.878906 19.355469 L 9.746094 19.355469 C 10.003906 20.523438 10.359375 21.601562 10.796875 22.546875 C 11.128906 23.253906 11.496094 23.863281 11.898438 24.367188 C 9.296875 23.546875 7.140625 21.726562 5.878906 19.355469 Z M 18.101562 24.367188 C 18.503906 23.863281 18.871094 23.253906 19.203125 22.546875 C 19.640625 21.601562 19.996094 20.523438 20.253906 19.355469 L 24.121094 19.355469 C 22.859375 21.726562 20.703125 23.546875 18.101562 24.367188 Z M 18.101562 24.367188 " fill-opacity="1" fill-rule="nonzero"/></g></svg>