<svg width="411" height="289" viewBox="0 0 411 289" fill="none" xmlns="http://www.w3.org/2000/svg">
<g clip-path="url(#clip0_717_10054)">
<path d="M172.518 5.34024C171.783 2.03287 175.037 -0.76476 178.19 0.485876C184.514 2.99308 193.447 5.51213 204.293 5.58326C215.84 5.66031 225.293 2.93973 231.796 0.313988C234.86 -0.924794 238.067 1.6476 237.557 4.91348C236.846 9.45963 235.008 15.3394 230.462 20.7746C220.949 32.1548 207.263 32.4038 205.319 32.4097C203.072 32.3326 189.736 31.6569 180.051 20.4546C175.6 15.3098 173.502 9.76785 172.518 5.34617V5.34024Z" fill="#2C2C70"/>
<path d="M245.274 9.82736C247.769 7.53354 251.818 8.96199 252.31 12.3108C253.299 19.0382 255.587 28.0357 260.946 37.4658C266.653 47.5065 273.73 54.3287 279.261 58.6496C281.863 60.6826 281.24 64.7487 278.158 65.94C273.867 67.5996 267.857 68.9451 260.874 67.73C246.258 65.1814 239.205 53.4574 238.227 51.7741C237.172 49.7884 231.09 37.8985 235.945 23.9104C238.179 17.4853 241.925 12.8976 245.262 9.82736H245.274Z" fill="#2C2C70"/>
<path d="M277.767 75.0798C280.997 76.0934 281.791 80.3136 279.136 82.4177C273.801 86.6379 267.157 93.1222 261.668 102.475C255.83 112.433 253.459 121.982 252.481 128.928C252.025 132.2 248.19 133.694 245.618 131.619C242.038 128.733 237.865 124.198 235.429 117.548C230.331 103.619 236.952 91.6463 237.924 89.9571C239.116 88.0485 246.37 76.8402 260.916 74.0544C267.596 72.7742 273.446 73.7284 277.767 75.0858V75.0798Z" fill="#2C2C70"/>
<path d="M237.503 135.851C238.238 139.158 234.984 141.956 231.831 140.705C225.507 138.198 216.574 135.679 205.728 135.608C194.181 135.531 184.727 138.251 178.225 140.877C175.161 142.116 171.954 139.543 172.464 136.277C173.175 131.731 175.013 125.852 179.559 120.416C189.072 109.036 202.758 108.787 204.702 108.781C206.949 108.858 220.285 109.534 229.97 120.736C234.421 125.881 236.519 131.423 237.503 135.845V135.851Z" fill="#2C2C70"/>
<path d="M164.747 131.364C162.252 133.658 158.204 132.23 157.712 128.881C156.722 122.153 154.434 113.156 149.076 103.726C143.368 93.6852 136.291 86.863 130.761 82.542C128.159 80.509 128.781 76.443 131.863 75.2516C136.154 73.592 142.165 72.2465 149.147 73.4616C163.763 76.0103 170.817 87.7343 171.795 89.4176C172.85 91.4032 178.931 103.293 174.077 117.281C171.842 123.706 168.096 128.294 164.759 131.364H164.747Z" fill="#2C2C70"/>
<path d="M132.255 66.1118C129.024 65.0983 128.23 60.8781 130.886 58.7739C136.22 54.5538 142.864 48.0694 148.353 38.7163C154.191 28.7587 156.562 19.21 157.54 12.2633C157.997 8.99152 161.831 7.49786 164.404 9.57238C167.984 12.4589 172.157 16.9932 174.593 23.6435C179.69 37.5724 173.069 49.5453 172.097 51.2346C170.906 53.1431 163.651 64.3514 149.106 67.1372C142.426 68.4175 136.576 67.4632 132.255 66.1059V66.1118Z" fill="#2C2C70"/>
<path d="M172.518 5.34024C171.783 2.03287 175.037 -0.76476 178.19 0.485876C184.514 2.99308 193.447 5.51213 204.293 5.58326C215.84 5.66031 225.293 2.93973 231.796 0.313988C234.86 -0.924794 238.067 1.6476 237.557 4.91348C236.846 9.45963 235.008 15.3394 230.462 20.7746C220.949 32.1548 207.263 32.4038 205.319 32.4097C203.072 32.3326 189.736 31.6569 180.051 20.4546C175.6 15.3098 173.502 9.76785 172.518 5.34617V5.34024Z" fill="#2C2C70"/>
<path d="M205.011 97.2656C219.741 97.2656 231.683 85.324 231.683 70.5932C231.683 55.8625 219.741 43.9209 205.011 43.9209C190.28 43.9209 178.338 55.8625 178.338 70.5932C178.338 85.324 190.28 97.2656 205.011 97.2656Z" fill="#2C2C70"/>
</g>
<g clip-path="url(#clip1_717_10054)">
<path d="M36.624 263.624C29.3104 263.624 22.8816 261.921 17.36 258.528C11.8384 255.134 7.56 250.385 4.536 244.304C1.512 238.222 0 231.144 0 223.08C0 215.016 1.5456 208.049 4.648 201.968C7.7504 195.886 12.1184 191.126 17.752 187.688C23.3856 184.249 30.0496 182.536 37.744 182.536C46.4016 182.536 53.648 184.63 59.472 188.808C65.296 192.985 69.0256 198.809 70.672 206.28H61.488C60.4464 201.206 57.848 197.174 53.704 194.184C49.56 191.193 44.24 189.704 37.744 189.704C31.7744 189.704 26.5664 191.048 22.12 193.736C17.6736 196.424 14.224 200.254 11.76 205.216C9.296 210.177 8.064 216.136 8.064 223.08C8.064 230.024 9.2736 235.993 11.704 241C14.1344 246.006 17.4944 249.848 21.784 252.536C26.0736 255.224 31.024 256.568 36.624 256.568C45.4384 256.568 52.0576 253.958 56.504 248.728C60.9504 243.497 63.4704 236.296 64.064 227.112H40.432V220.728H72.128V262.28H64.96L64.288 248.392C62.3504 251.606 60.1216 254.361 57.624 256.68C55.1264 258.998 52.1696 260.734 48.776 261.888C45.3824 263.041 41.328 263.624 36.624 263.624Z" fill="#2C2C70"/>
<path d="M87.5841 192.503C86.0161 192.503 84.6721 191.966 83.5521 190.879C82.4321 189.793 81.8721 188.438 81.8721 186.791C81.8721 185.145 82.4097 183.711 83.4961 182.703C84.5825 181.695 85.9377 181.191 87.5841 181.191C89.0737 181.191 90.3841 181.695 91.5041 182.703C92.6241 183.711 93.1841 185.078 93.1841 186.791C93.1841 188.505 92.6465 189.793 91.5601 190.879C90.4737 191.966 89.1521 192.503 87.5841 192.503ZM83.6641 262.279V205.831H91.5041V262.279H83.6641Z" fill="#2C2C70"/>
<path d="M125.776 288.264C120.77 288.264 116.346 287.592 112.504 286.248C108.662 284.904 105.638 282.888 103.432 280.2C101.226 277.512 100.128 274.185 100.128 270.232C100.128 268.664 100.408 266.961 100.968 265.136C101.528 263.31 102.626 261.462 104.272 259.592C105.907 257.721 108.226 256.041 111.216 254.552L117.6 257.352C113.646 259.222 111.07 261.249 109.872 263.456C108.674 265.662 108.08 267.656 108.08 269.448C108.08 272.136 108.842 274.376 110.376 276.168C111.91 277.96 113.994 279.304 116.648 280.2C119.302 281.096 122.338 281.544 125.776 281.544C129.214 281.544 132.182 281.062 134.68 280.088C137.178 279.113 139.104 277.713 140.448 275.888C141.792 274.062 142.464 271.945 142.464 269.56C142.464 266.793 141.4 264.464 139.272 262.56C137.144 260.656 133.202 259.558 127.456 259.256C122.898 258.953 119.146 258.561 116.2 258.08C113.254 257.598 110.824 256.993 108.92 256.288C107.016 255.582 105.448 254.809 104.216 253.992C102.984 253.174 101.808 252.278 100.688 251.304V248.728L111.44 238.536L118.608 241.112L108.08 250.52L108.752 247.496C109.648 248.089 110.466 248.649 111.216 249.176C111.966 249.702 112.986 250.128 114.296 250.464C115.606 250.8 117.432 251.136 119.784 251.472C122.136 251.808 125.328 252.121 129.36 252.424C134.512 252.793 138.622 253.689 141.68 255.112C144.738 256.534 146.978 258.438 148.4 260.824C149.822 263.209 150.528 266.009 150.528 269.224C150.528 272.438 149.654 275.473 147.896 278.352C146.138 281.23 143.45 283.593 139.832 285.464C136.214 287.334 131.522 288.264 125.776 288.264ZM125.664 244.36C120.882 244.36 116.872 243.464 113.624 241.672C110.376 239.88 107.89 237.472 106.176 234.448C104.462 231.424 103.6 228.086 103.6 224.424C103.6 220.761 104.462 217.334 106.176 214.344C107.89 211.353 110.398 208.968 113.68 207.176C116.962 205.384 120.96 204.488 125.664 204.488C130.368 204.488 134.456 205.384 137.704 207.176C140.952 208.968 143.416 211.353 145.096 214.344C146.776 217.334 147.616 220.694 147.616 224.424C147.616 228.153 146.776 231.424 145.096 234.448C143.416 237.472 140.952 239.88 137.704 241.672C134.456 243.464 130.446 244.36 125.664 244.36ZM125.664 237.64C129.998 237.64 133.414 236.497 135.912 234.224C138.41 231.95 139.664 228.68 139.664 224.424C139.664 220.168 138.41 216.808 135.912 214.568C133.414 212.328 129.987 211.208 125.664 211.208C121.341 211.208 117.88 212.328 115.304 214.568C112.728 216.808 111.44 220.089 111.44 224.424C111.44 228.758 112.706 231.95 115.248 234.224C117.79 236.497 121.262 237.64 125.664 237.64ZM134.848 212.888L132.048 205.832H154.896V212.216L134.848 212.888Z" fill="#2C2C70"/>
<path d="M182 263.624C177.52 263.624 173.577 262.873 170.184 261.384C166.79 259.894 164.057 257.744 162.008 254.944C159.958 252.144 158.704 248.806 158.256 244.92H166.432C166.801 247.081 167.641 249.064 168.952 250.856C170.262 252.648 172.032 254.07 174.272 255.112C176.512 256.153 179.166 256.68 182.224 256.68C185.057 256.68 187.398 256.265 189.224 255.448C191.049 254.63 192.438 253.488 193.368 252.032C194.297 250.576 194.768 248.952 194.768 247.16C194.768 244.696 194.185 242.769 193.032 241.392C191.878 240.014 190.209 238.984 188.048 238.312C185.886 237.64 183.265 237.001 180.208 236.408C177.665 235.96 175.257 235.366 172.984 234.616C170.71 233.865 168.649 232.902 166.824 231.704C164.998 230.505 163.542 228.993 162.456 227.168C161.369 225.342 160.832 223.192 160.832 220.728C160.832 217.513 161.638 214.702 163.24 212.272C164.841 209.841 167.137 207.937 170.128 206.56C173.118 205.182 176.624 204.488 180.656 204.488C186.401 204.488 191.105 205.921 194.768 208.8C198.43 211.678 200.558 215.878 201.152 221.4H193.312C193.009 218.342 191.744 215.912 189.504 214.12C187.264 212.328 184.24 211.432 180.432 211.432C176.624 211.432 173.846 212.193 171.864 213.728C169.881 215.262 168.896 217.334 168.896 219.944C168.896 221.59 169.411 223.001 170.464 224.2C171.505 225.398 173.062 226.417 175.112 227.28C177.161 228.142 179.681 228.87 182.672 229.464C186.256 230.136 189.56 231.009 192.584 232.096C195.608 233.182 198.072 234.817 199.976 237.024C201.88 239.23 202.832 242.344 202.832 246.376C202.91 249.736 202.081 252.726 200.368 255.336C198.654 257.945 196.246 259.984 193.144 261.44C190.041 262.896 186.334 263.624 182 263.624Z" fill="#2C2C70"/>
<path d="M211.904 262.279V183.879H226.24V216.471H261.408V183.879H275.744V262.279H261.408V228.119H226.24V262.279H211.904Z" fill="#2C2C70"/>
<path d="M306.981 263.624C300.037 263.624 294.683 261.462 290.909 257.128C287.135 252.793 285.253 246.454 285.253 238.088V206.728H299.477V236.744C299.477 241.526 300.451 245.177 302.389 247.72C304.327 250.262 307.395 251.528 311.573 251.528C315.527 251.528 318.797 250.105 321.373 247.272C323.949 244.438 325.237 240.473 325.237 235.4V206.728H339.573V262.28H326.917L325.797 252.872C324.072 256.153 321.597 258.774 318.349 260.712C315.101 262.649 311.315 263.624 306.981 263.624Z" fill="#2C2C70"/>
<path d="M382.693 263.623C378.515 263.623 374.853 262.839 371.717 261.271C368.581 259.703 366.038 257.497 364.101 254.663L362.533 262.279H349.765V181.639H364.101V214.679C365.893 212.215 368.267 210.054 371.213 208.183C374.158 206.313 377.989 205.383 382.693 205.383C387.923 205.383 392.582 206.649 396.693 209.191C400.803 211.734 404.051 215.206 406.437 219.607C408.822 224.009 410.021 229.015 410.021 234.615C410.021 240.215 408.822 245.199 406.437 249.567C404.051 253.935 400.803 257.374 396.693 259.871C392.582 262.369 387.923 263.623 382.693 263.623ZM379.669 251.079C384.227 251.079 387.99 249.545 390.981 246.487C393.971 243.43 395.461 239.465 395.461 234.615C395.461 229.766 393.971 225.767 390.981 222.631C387.99 219.495 384.227 217.927 379.669 217.927C375.11 217.927 371.246 219.473 368.301 222.575C365.355 225.678 363.877 229.654 363.877 234.503C363.877 239.353 365.355 243.329 368.301 246.431C371.246 249.534 375.043 251.079 379.669 251.079Z" fill="#2C2C70"/>
</g>
<defs>
<clipPath id="clip0_717_10054">
<rect width="151.771" height="141.191" fill="white" transform="translate(129.125)"/>
</clipPath>
<clipPath id="clip1_717_10054">
<rect width="410.021" height="107.072" fill="white" transform="translate(0 181.191)"/>
</clipPath>
</defs>
</svg>
