<svg width="411" height="108" viewBox="0 0 411 108" fill="none" xmlns="http://www.w3.org/2000/svg">
<g clip-path="url(#clip0_717_10107)">
<path d="M36.624 82.4318C29.3104 82.4318 22.8816 80.7294 17.36 77.3358C11.8384 73.9422 7.56 69.1934 4.536 63.1118C1.512 57.0302 0 49.9518 0 41.8878C0 33.8238 1.5456 26.8574 4.648 20.7758C7.7504 14.6941 12.1184 9.93415 17.752 6.49575C23.3856 3.05735 30.0496 1.34375 37.744 1.34375C46.4016 1.34375 53.648 3.43815 59.472 7.61575C65.296 11.7934 69.0256 17.6174 70.672 25.0878H61.488C60.4464 20.0142 57.848 15.9822 53.704 12.9918C49.56 10.0014 44.24 8.51175 37.744 8.51175C31.7744 8.51175 26.5664 9.85575 22.12 12.5438C17.6736 15.2318 14.224 19.0622 11.76 24.0238C9.296 28.9854 8.064 34.9438 8.064 41.8878C8.064 48.8318 9.2736 54.8014 11.704 59.8078C14.1344 64.8142 17.4944 68.6558 21.784 71.3438C26.0736 74.0318 31.024 75.3758 36.624 75.3758C45.4384 75.3758 52.0576 72.7662 56.504 67.5358C60.9504 62.3054 63.4704 55.1038 64.064 45.9198H40.432V39.5358H72.128V81.0878H64.96L64.288 67.1998C62.3504 70.4142 60.1216 73.1694 57.624 75.4878C55.1264 77.8062 52.1696 79.5422 48.776 80.6958C45.3824 81.8494 41.328 82.4318 36.624 82.4318Z" fill="#2C2C70"/>
<path d="M87.5839 11.312C86.0159 11.312 84.6719 10.7744 83.5519 9.688C82.4319 8.6016 81.8719 7.2464 81.8719 5.6C81.8719 3.9536 82.4096 2.52 83.496 1.512C84.5824 0.504 85.9375 0 87.5839 0C89.0735 0 90.3839 0.504 91.5039 1.512C92.6239 2.52 93.1839 3.8864 93.1839 5.6C93.1839 7.3136 92.6463 8.6016 91.5599 9.688C90.4735 10.7744 89.1519 11.312 87.5839 11.312ZM83.6639 81.088V24.64H91.5039V81.088H83.6639Z" fill="#2C2C70"/>
<path d="M125.776 107.072C120.77 107.072 116.346 106.4 112.504 105.056C108.662 103.712 105.638 101.696 103.432 99.0079C101.226 96.3199 100.128 92.9935 100.128 89.0399C100.128 87.4719 100.408 85.7695 100.968 83.9439C101.528 82.1183 102.626 80.2703 104.272 78.3999C105.907 76.5295 108.226 74.8495 111.216 73.3599L117.6 76.1599C113.646 78.0303 111.07 80.0575 109.872 82.2639C108.674 84.4703 108.08 86.4639 108.08 88.2559C108.08 90.9439 108.842 93.1839 110.376 94.9759C111.91 96.7679 113.994 98.1119 116.648 99.0079C119.302 99.9039 122.338 100.352 125.776 100.352C129.214 100.352 132.182 99.8703 134.68 98.8959C137.178 97.9215 139.104 96.5215 140.448 94.6959C141.792 92.8703 142.464 90.7535 142.464 88.3679C142.464 85.6015 141.4 83.2719 139.272 81.3679C137.144 79.4639 133.202 78.3663 127.456 78.0639C122.898 77.7615 119.146 77.3695 116.2 76.8879C113.254 76.4063 110.824 75.8015 108.92 75.0959C107.016 74.3903 105.448 73.6175 104.216 72.7999C102.984 71.9823 101.808 71.0863 100.688 70.1119V67.5359L111.44 57.3439L118.608 59.9199L108.08 69.3279L108.752 66.3039C109.648 66.8975 110.466 67.4575 111.216 67.9839C111.966 68.5103 112.986 68.9359 114.296 69.2719C115.606 69.6079 117.432 69.9439 119.784 70.2799C122.136 70.6159 125.328 70.9295 129.36 71.2319C134.512 71.6015 138.622 72.4975 141.68 73.9199C144.738 75.3423 146.978 77.2463 148.4 79.6319C149.822 82.0175 150.528 84.8175 150.528 88.0319C150.528 91.2463 149.654 94.2815 147.896 97.1599C146.138 100.038 143.45 102.402 139.832 104.272C136.214 106.142 131.522 107.072 125.776 107.072ZM125.664 63.1679C120.882 63.1679 116.872 62.2719 113.624 60.4799C110.376 58.6879 107.89 56.2799 106.176 53.2559C104.462 50.2319 103.6 46.8943 103.6 43.2319C103.6 39.5695 104.462 36.1423 106.176 33.1519C107.89 30.1615 110.398 27.7759 113.68 25.9839C116.962 24.1919 120.96 23.2959 125.664 23.2959C130.368 23.2959 134.456 24.1919 137.704 25.9839C140.952 27.7759 143.416 30.1615 145.096 33.1519C146.776 36.1423 147.616 39.5023 147.616 43.2319C147.616 46.9615 146.776 50.2319 145.096 53.2559C143.416 56.2799 140.952 58.6879 137.704 60.4799C134.456 62.2719 130.446 63.1679 125.664 63.1679ZM125.664 56.4479C129.998 56.4479 133.414 55.3055 135.912 53.0319C138.41 50.7583 139.664 47.4879 139.664 43.2319C139.664 38.9759 138.41 35.6159 135.912 33.3759C133.414 31.1359 129.987 30.0159 125.664 30.0159C121.341 30.0159 117.88 31.1359 115.304 33.3759C112.728 35.6159 111.44 38.8975 111.44 43.2319C111.44 47.5663 112.706 50.7583 115.248 53.0319C117.79 55.3055 121.262 56.4479 125.664 56.4479ZM134.848 31.6959L132.048 24.6399H154.896V31.0239L134.848 31.6959Z" fill="#2C2C70"/>
<path d="M182 82.4319C177.52 82.4319 173.577 81.6815 170.184 80.1919C166.79 78.7023 164.057 76.5519 162.008 73.7519C159.958 70.9519 158.704 67.6143 158.256 63.7279H166.432C166.801 65.8895 167.641 67.8719 168.952 69.6639C170.262 71.4559 172.032 72.8783 174.272 73.9199C176.512 74.9615 179.166 75.4879 182.224 75.4879C185.057 75.4879 187.398 75.0735 189.224 74.2559C191.049 73.4383 192.438 72.2959 193.368 70.8399C194.297 69.3839 194.768 67.7599 194.768 65.9679C194.768 63.5039 194.185 61.5775 193.032 60.1999C191.878 58.8223 190.209 57.7919 188.048 57.1199C185.886 56.4479 183.265 55.8095 180.208 55.2159C177.665 54.7679 175.257 54.1743 172.984 53.4239C170.71 52.6735 168.649 51.7103 166.824 50.5119C164.998 49.3135 163.542 47.8015 162.456 45.9759C161.369 44.1503 160.832 41.9999 160.832 39.5359C160.832 36.3215 161.638 33.5103 163.24 31.0799C164.841 28.6495 167.137 26.7455 170.128 25.3679C173.118 23.9903 176.624 23.2959 180.656 23.2959C186.401 23.2959 191.105 24.7295 194.768 27.6079C198.43 30.4863 200.558 34.6863 201.152 40.2079H193.312C193.009 37.1503 191.744 34.7199 189.504 32.9279C187.264 31.1359 184.24 30.2399 180.432 30.2399C176.624 30.2399 173.846 31.0015 171.864 32.5359C169.881 34.0703 168.896 36.1423 168.896 38.7519C168.896 40.3983 169.411 41.8095 170.464 43.0079C171.505 44.2063 173.062 45.2255 175.112 46.0879C177.161 46.9503 179.681 47.6783 182.672 48.2719C186.256 48.9439 189.56 49.8175 192.584 50.9039C195.608 51.9903 198.072 53.6255 199.976 55.8319C201.88 58.0383 202.832 61.1519 202.832 65.1839C202.91 68.5439 202.081 71.5343 200.368 74.1439C198.654 76.7535 196.246 78.7919 193.144 80.2479C190.041 81.7039 186.334 82.4319 182 82.4319Z" fill="#2C2C70"/>
<path d="M211.904 81.0875V2.6875H226.24V35.2795H261.408V2.6875H275.744V81.0875H261.408V46.9275H226.24V81.0875H211.904Z" fill="#2C2C70"/>
<path d="M306.981 82.4321C300.037 82.4321 294.683 80.2705 290.909 75.9361C287.135 71.6017 285.253 65.2625 285.253 56.8961V25.5361H299.477V55.5521C299.477 60.3345 300.451 63.9857 302.389 66.5281C304.327 69.0705 307.395 70.3361 311.573 70.3361C315.527 70.3361 318.797 68.9137 321.373 66.0801C323.949 63.2465 325.237 59.2817 325.237 54.2081V25.5361H339.573V81.0881H326.917L325.797 71.6801C324.072 74.9617 321.597 77.5825 318.349 79.5201C315.101 81.4577 311.315 82.4321 306.981 82.4321Z" fill="#2C2C70"/>
<path d="M382.693 82.4323C378.515 82.4323 374.853 81.6483 371.717 80.0803C368.581 78.5123 366.038 76.3059 364.101 73.4723L362.533 81.0883H349.765V0.448242H364.101V33.4882C365.893 31.0242 368.267 28.8626 371.213 26.9922C374.158 25.1218 377.989 24.1922 382.693 24.1922C387.923 24.1922 392.582 25.4578 396.693 28.0002C400.803 30.5426 404.051 34.0146 406.437 38.4162C408.822 42.8178 410.021 47.8243 410.021 53.4243C410.021 59.0243 408.822 64.0083 406.437 68.3763C404.051 72.7443 400.803 76.1827 396.693 78.6803C392.582 81.1779 387.923 82.4323 382.693 82.4323ZM379.669 69.8883C384.227 69.8883 387.99 68.3539 390.981 65.2963C393.971 62.2387 395.461 58.2739 395.461 53.4243C395.461 48.5747 393.971 44.5763 390.981 41.4402C387.99 38.3042 384.227 36.7362 379.669 36.7362C375.11 36.7362 371.246 38.2818 368.301 41.3843C365.355 44.4867 363.877 48.4626 363.877 53.3123C363.877 58.1619 365.355 62.1379 368.301 65.2403C371.246 68.3427 375.043 69.8883 379.669 69.8883Z" fill="#2C2C70"/>
</g>
<defs>
<clipPath id="clip0_717_10107">
<rect width="410.021" height="107.072" fill="white"/>
</clipPath>
</defs>
</svg>
